Coordinates
version=1
nRows=22
nColumns=24
inDegrees=yes

Units are S.I. units (second, meters, Newtons, ...)
Angles are in degrees.

endheader
time	pelvis_tilt	pelvis_list	pelvis_rotation	pelvis_tx	pelvis_ty	pelvis_tz	hip_flexion_r	hip_adduction_r	hip_rotation_r	knee_angle_r	ankle_angle_r	subtalar_angle_r	mtp_angle_r	hip_flexion_l	hip_adduction_l	hip_rotation_l	knee_angle_l	ankle_angle_l	subtalar_angle_l	mtp_angle_l	lumbar_extension	lumbar_bending	lumbar_rotation
      4.99000000	     -9.53221044	     -2.21038464	      6.75314033	     -1.20173325	     -0.03427958	      2.00866574	     34.21273994	     -1.29890148	    -17.92655519	     -9.63198332	     -0.19056311	      5.54350063	     16.18002285	     -4.63304752	     -1.09449837	     -3.81142874	    -16.88115672	     11.29800641	      6.20192656	      9.46094400	      4.86925124	      2.77815585	     -9.34444671
      5.00000000	     -9.53939610	     -2.53799510	      6.92360485	     -1.18699646	     -0.03569368	      2.01002255	     34.29393163	     -1.04638860	    -17.61985888	    -11.25075612	     -0.42957845	      3.95876434	     11.21522565	     -4.64098305	     -1.84102249	     -3.76981259	    -18.37935104	     10.19789704	      6.75754157	     11.91301326	      5.16291762	      3.06044320	     -9.47095052
      5.01000000	     -9.53985122	     -3.09149223	      6.98181698	     -1.17216477	     -0.03678718	      2.01163751	     34.24576324	     -0.45981086	    -17.28038060	    -12.55338560	     -1.09713517	      2.48831602	      5.42814975	     -4.49381196	     -2.84749388	     -3.87037979	    -20.13704952	      9.09773783	      7.38048603	     13.31026696	      5.47632175	      3.58206345	     -9.54224796
      5.02000000	     -9.66972577	     -3.84524949	      6.88858702	     -1.15729057	     -0.03760165	      2.01346638	     34.29516981	      0.39367748	    -17.01432804	    -13.62822834	     -2.02792626	      1.43006619	      0.10854162	     -4.03141165	     -4.08192316	     -4.25074114	    -22.12060117	      7.63439314	      8.03628574	     15.35798996	      5.94895782	      4.31990636	     -9.52097594
      5.03000000	     -9.82589306	     -4.68770771	      6.65542926	     -1.14249602	     -0.03797038	      2.01534530	     34.41175538	      1.38339566	    -16.82333122	    -14.64809372	     -3.27644107	      0.69281974	     -2.65724059	     -3.38156898	     -5.39983133	     -4.77046779	    -24.28979537	      5.67452653	      8.45313028	     17.53041336	      6.43547618	      5.19217885	     -9.39542363
      5.04000000	    -10.03300142	     -5.51762015	      6.36710126	     -1.12778715	     -0.03802225	      2.01717065	     34.66332057	      2.36007373	    -16.67162809	    -15.80566528	     -4.60007382	      0.08515096	     -3.13098571	     -2.48840719	     -6.69589746	     -5.34279752	    -26.66875653	      3.15588289	      8.55894023	     19.83931250	      6.95454337	      6.07522712	     -9.26337619
      5.05000000	    -10.17868682	     -6.29561272	      6.08401644	     -1.11303953	     -0.03780074	      2.01893828	     34.85727768	      3.28656640	    -16.57874804	    -17.06173029	     -5.76179963	     -0.47196258	     -2.01663215	     -1.49105986	     -7.97163499	     -5.98967961	    -29.17165343	     -0.09605851	      8.32240158	     23.31613368	      7.40620880	      6.92154815	     -9.21079426
      5.06000000	    -10.22217057	     -7.03934734	      5.82932345	     -1.09825089	     -0.03741600	      2.02075527	     34.83928264	      4.22356893	    -16.48688412	    -18.20165250	     -6.78768060	     -1.26958993	      0.46476214	     -0.42556361	     -9.25406170	     -6.59800990	    -31.81217461	     -3.89556932	      7.74343675	     27.29278070	      7.74549004	      7.72635241	     -9.19290227
      5.07000000	    -10.40347662	     -7.64781231	      5.53754953	     -1.08370390	     -0.03722765	      2.02273969	     34.86365499	      5.09667429	    -16.15763434	    -19.23136087	     -7.37662454	     -2.24519309	      2.68616727	      0.98924916	    -10.35700595	     -7.02295207	    -34.65215634	     -8.08689696	      6.57109178	     30.96918761	      8.18027784	      8.36302642	     -9.17556124
      5.08000000	    -10.50293109	     -8.41396570	      5.23456623	     -1.06920902	     -0.03700604	      2.02489576	     34.59035000	      6.23762898	    -15.77252894	    -19.88693746	     -7.67395104	     -3.33498549	      4.56400836	      2.48464533	    -11.65262388	     -7.25741129	    -37.64112034	    -12.36571643	      5.14545477	     34.51009180	      8.53730713	      9.14786430	     -9.15585122
      5.09000000	    -10.57965014	     -9.26227926	      4.91133805	     -1.05504725	     -0.03680625	      2.02711971	     34.14975449	      7.53353736	    -15.35235040	    -20.28238479	     -7.63594800	     -4.32205484	      5.88779748	      4.11058300	    -12.99859465	     -7.23918792	    -40.75742777	    -16.47445124	      3.36545459	     37.31803223	      8.82224947	     10.01697800	     -9.11000702
      5.10000000	    -10.79416111	    -10.18451302	      4.53482353	     -1.04119483	     -0.03678271	      2.02936953	     33.75326165	      8.95400297	    -14.86144570	    -20.47793658	     -7.34834071	     -5.23521194	      6.30971166	      6.02227038	    -14.35030094	     -6.96689465	    -44.01369178	    -19.94797012	      1.51742940	     38.50483472	      9.22076024	     10.95925238	     -9.03526194
      5.11000000	    -10.88467835	    -10.98043421	      4.16718685	     -1.02765820	     -0.03645107	      2.03147887	     33.12599552	     10.26357580	    -14.41013817	    -20.54319279	     -6.82710469	     -5.89780710	      6.43170402	      7.81863492	    -15.46569450	     -6.51456849	    -47.08905330	    -23.03176652	     -0.55794123	     39.34969263	      9.42483988	     11.79201541	     -8.86215790
      5.12000000	    -10.79176216	    -11.65068278	      3.83068202	     -1.01428220	     -0.03570013	      2.03346818	     32.20257184	     11.46187647	    -13.99603431	    -20.46539030	     -6.25825957	     -6.45320746	      6.45241656	      9.40173663	    -16.35925616	     -5.95390302	    -49.96063668	    -25.18999992	     -2.39713093	     39.13551977	      9.39624512	     12.51226068	     -8.61748513
      5.13000000	    -10.80271617	    -12.13527316	      3.55580160	     -1.00114055	     -0.03490174	      2.03534536	     31.36923144	     12.39110820	    -13.74857781	    -20.39026519	     -5.59529089	     -6.81852293	      6.49537386	     11.13384182	    -16.93032084	     -5.23530177	    -52.64201724	    -26.37464003	     -3.98074683	     38.94832380	      9.45147178	     13.01534697	     -8.38545722
      5.14000000	    -10.85141436	    -12.44492358	      3.35091458	     -0.98815846	     -0.03394580	      2.03705709	     30.55137487	     13.04691186	    -13.71318608	    -20.31810246	     -4.83724746	     -6.83268799	      6.73830810	     12.93272594	    -17.18513514	     -4.37008902	    -55.10281227	    -26.55621692	     -5.14281989	     38.70229754	      9.53488166	     13.32402820	     -8.13957915
      5.15000000	    -10.82354649	    -12.56663318	      3.18004371	     -0.97537685	     -0.03273591	      2.03864845	     29.61163486	     13.47731391	    -13.71633447	    -20.20014460	     -4.22038324	     -6.75979823	      8.14241910	     14.63926315	    -17.13681220	     -3.51319889	    -57.31296298	    -25.83438032	     -6.01579040	     37.93648568	      9.50594892	     13.43974124	     -7.88217229
      5.16000000	    -10.62493797	    -12.62831125	      3.15730585	     -0.96274519	     -0.03118416	      2.04000223	     28.42789713	     13.78633940	    -13.76917837	    -19.99715266	     -3.39941475	     -6.40003691	      8.59597663	     16.19286671	    -16.92404708	     -2.52634037	    -59.19326844	    -24.66745365	     -6.56113364	     38.21712607	      9.30664448	     13.48543971	     -7.69797077
      5.17000000	    -10.43662956	    -12.61245864	      3.08373314	     -0.95030251	     -0.02953652	      2.04134072	     27.18283506	     14.05064873	    -13.63704207	    -19.68188973	     -2.66825015	     -6.04999251	      8.94845857	     17.73220797	    -16.57841769	     -1.63771218	    -60.78728839	    -23.14861413	     -6.91586215	     38.55363709	      9.08468475	     13.46405928	     -7.37052939
      5.18000000	    -10.22987977	    -12.54318131	      3.12374649	     -0.93805024	     -0.02785011	      2.04252163	     25.86128249	     14.23372955	    -13.44958162	    -19.23988974	     -1.97630239	     -5.79953419	      9.26285999	     19.29423117	    -16.08482676	     -0.66935809	    -62.10878411	    -21.44816181	     -7.08159716	     38.92588970	      8.85466082	     13.36165091	     -7.16831999
      5.19000000	     -9.99230297	    -12.53702532	      3.25414133	     -0.92584121	     -0.02619412	      2.04348982	     24.44238896	     14.45073660	    -13.35886493	    -18.62790820	     -1.38888016	     -5.56631501	      9.67927302	     20.84518543	    -15.59358631	      0.33530889	    -63.15988344	    -19.67106941	     -7.20658011	     39.29202982	      8.62904922	     13.31885321	     -7.02434663
      5.20000000	     -9.74163185	    -12.38842069	      3.32027276	     -0.91378098	     -0.02452822	      2.04444978	     22.99082461	     14.55525548	    -13.12079940	    -18.01351040	     -0.83405439	     -5.38058248	      9.94867094	     22.27002092	    -14.93840466	      1.16351069	    -63.87300349	    -17.84089855	     -7.22313567	     39.62499736	      8.34856550	     13.15213454	     -6.76093711
